Coordinates
version=1
nRows=5
nColumns=42
inDegrees=yes

Units are S.I. units (second, meters, Newtons, ...)
If the header above contains a line with 'inDegrees', this indicates whether rotational values are in degrees (yes) or radians (no).

endheader
time	pelvis_tilt	pelvis_list	pelvis_rotation	pelvis_tx	pelvis_ty	pelvis_tz	hip_flexion_r	hip_adduction_r	hip_rotation_r	knee_angle_r	knee_adduction_r	knee_angle_r_beta	ankle_angle_r	subtalar_angle_r	mtp_angle_r	hip_flexion_l	hip_adduction_l	hip_rotation_l	knee_angle_l	knee_adduction_l	knee_angle_l_beta	ankle_angle_l	subtalar_angle_l	mtp_angle_l	lumbar_extension	lumbar_bending	lumbar_rotation	arm_flex_r	arm_add_r	arm_rot_r	elbow_flex_r	pro_sup_r	wrist_flex_r	wrist_dev_r	arm_flex_l	arm_add_l	arm_rot_l	elbow_flex_l	pro_sup_l	wrist_flex_l	wrist_dev_l
      0.00000000	      2.90632854	     -0.27008991	     -1.10775237	     -2.10643490	      0.97574885	      0.26674975	     15.74749154	     -6.68239952	     -6.42662952	     37.48918376	      6.81393783	      0.65430969	      9.48681670	      2.47302202	     -9.58718093	     -6.48863467	      1.52178464	     -5.35657684	      3.33879719	      0.09526149	      0.05827300	      8.98650523	     16.06543166	     -9.58718093	    -11.22766226	      0.25466031	     -2.09073722	     -7.18746945	    -11.82892760	      7.15388522	     28.89814243	     90.00000001	      0.00000000	      0.00000000	     10.14614848	    -17.91789257	     21.64887181	     32.38255393	     90.00000001	      0.00000000	      0.00000000
      0.01000000	      2.87173912	     -0.21579060	     -1.03948329	     -2.10099288	      0.97514168	      0.26668797	     16.10106947	     -6.73285266	     -6.96291190	     36.15534714	      6.69804526	      0.63102985	      9.51937468	      2.70005646	     -9.54696912	     -6.82980933	      1.61344900	     -5.30816517	      3.29710913	      0.04242752	      0.05754541	      9.35186861	     16.15707346	     -9.54696912	    -11.14976673	      0.28994933	     -2.16548413	     -7.41253637	    -11.78244372	      7.15772829	     28.69277512	     90.00000001	      0.00000000	      0.00000000	     10.39504568	    -18.00436656	     21.56420950	     32.89459502	     90.00000001	      0.00000000	      0.00000000
      0.02000000	      2.74831026	      0.01960234	     -1.09185755	     -2.09420020	      0.97414734	      0.26676402	     16.75618356	     -6.92843401	     -7.65837785	     34.66893382	      6.42938039	      0.60508704	      9.52265333	      2.78694266	     -9.52802317	     -7.12306339	      1.91647179	     -5.51884350	      3.34133403	     -0.01102115	      0.05831728	      9.66411497	     16.11214735	     -9.52802317	    -10.96611077	      0.12664269	     -2.10386818	     -7.76637408	    -11.72436676	      7.17165444	     28.53450852	     90.00000001	      0.00000000	      0.00000000	     10.77371943	    -18.06268368	     21.48027515	     33.37213356	     90.00000001	      0.00000000	      0.00000000
      0.03000000	      2.64551858	      0.21787706	     -1.07214131	     -2.08616353	      0.97301348	      0.26680765	     17.31376496	     -7.06921179	     -8.39307272	     32.68062124	      6.20829002	      0.57038444	      9.44940806	      3.13697994	     -9.50714621	     -7.55604999	      2.19461087	     -5.58711543	      3.31585809	     -0.12559134	      0.05787264	     10.14772523	     16.19315159	     -9.50714621	    -10.78312558	      0.03876989	     -2.16228280	     -8.09349454	    -11.63869526	      7.16527878	     28.27056558	     90.00000001	      0.00000000	      0.00000000	     11.11425133	    -18.18169700	     21.39542476	     34.05832615	     90.00000001	      0.00000000	      0.00000000
      0.04000000	      3.30848996	     -0.31834334	     -0.63379124	     -2.07665000	      0.97282015	      0.26714368	     16.51843994	     -6.40467433	     -9.75763687	     29.72297904	      5.92307240	      0.51876385	      9.33470898	      4.29084119	     -9.42813061	     -9.04006272	      1.44103137	     -5.34769956	      3.06068412	      0.06357826	      0.05341902	     10.88256783	     16.81861526	     -9.42813061	    -11.43610262	      0.76101128	     -2.56674703	     -8.23037952	    -11.46424306	      6.84262009	     27.68572694	     90.00000001	      0.00000000	      0.00000000	     11.30625688	    -18.52860431	     21.45605602	     35.39762435	     90.00000001	      0.00000000	      0.00000000
